<svg width="16" height="16" viewBox="0 0 16 16" fill="none" xmlns="http://www.w3.org/2000/svg">
<path fill-rule="evenodd" clip-rule="evenodd" d="M8.25 2.95652C9.53767 2.95652 10.5714 4.0214 10.5714 5.34783C10.5714 6.67425 9.53767 7.73913 8.25 7.73913C6.96233 7.73913 5.92857 6.67425 5.92857 5.34783C5.92857 4.0214 6.96233 2.95652 8.25 2.95652ZM6.39286 5.34783C6.39286 4.29603 7.22893 3.43478 8.25 3.43478V4.3913C7.73131 4.3913 7.32143 4.81352 7.32143 5.34783H6.39286Z" fill="#293484"/>
<path fill-rule="evenodd" clip-rule="evenodd" d="M5 5.34783C5 3.50391 6.45996 2 8.25 2C10.04 2 11.5 3.50391 11.5 5.34783C11.5 7.02921 10.2849 8.41729 8.71429 8.65082V13H7.78571V8.65082C6.21512 8.41729 5 7.02921 5 5.34783ZM10.5714 5.34783C10.5714 4.0214 9.53767 2.95652 8.25 2.95652C6.96233 2.95652 5.92857 4.0214 5.92857 5.34783C5.92857 6.67425 6.96233 7.73913 8.25 7.73913C9.53767 7.73913 10.5714 6.67425 10.5714 5.34783Z" fill="#293484"/>
</svg>
